<?xml version="1.0" encoding="UTF-8" standalone="no"?>
<!-- Created with Inkscape (http://www.inkscape.org/) -->

<svg
   width="33.907768mm"
   height="23.505106mm"
   viewBox="0 0 33.907768 23.505106"
   version="1.1"
   id="svg52598"
   inkscape:version="1.1.2 (0a00cf5339, 2022-02-04)"
   sodipodi:docname="bugs.svg"
   xmlns:inkscape="http://www.inkscape.org/namespaces/inkscape"
   xmlns:sodipodi="http://sodipodi.sourceforge.net/DTD/sodipodi-0.dtd"
   xmlns="http://www.w3.org/2000/svg"
   xmlns:svg="http://www.w3.org/2000/svg">
  <sodipodi:namedview
     id="namedview52600"
     pagecolor="#ffffff"
     bordercolor="#666666"
     borderopacity="1.0"
     inkscape:pageshadow="2"
     inkscape:pageopacity="0.0"
     inkscape:pagecheckerboard="0"
     inkscape:document-units="mm"
     showgrid="false"
     fit-margin-top="0"
     fit-margin-left="0"
     fit-margin-right="0"
     fit-margin-bottom="0"
     inkscape:zoom="0.57370932"
     inkscape:cx="262.32797"
     inkscape:cy="26.145645"
     inkscape:window-width="1592"
     inkscape:window-height="793"
     inkscape:window-x="1080"
     inkscape:window-y="885"
     inkscape:window-maximized="1"
     inkscape:current-layer="layer1" />
  <defs
     id="defs52595">
    <filter
       style="color-interpolation-filters:sRGB"
       inkscape:label="Drop Shadow"
       id="filter47089"
       x="-0.04701616"
       y="-0.070157982"
       width="1.1070924"
       height="1.145188">
      <feFlood
         flood-opacity="1"
         flood-color="rgb(172,172,172)"
         result="flood"
         id="feFlood47079" />
      <feComposite
         in="flood"
         in2="SourceGraphic"
         operator="in"
         result="composite1"
         id="feComposite47081" />
      <feGaussianBlur
         in="composite1"
         stdDeviation="0.6"
         result="blur"
         id="feGaussianBlur47083" />
      <feOffset
         dx="0.4"
         dy="0.1"
         result="offset"
         id="feOffset47085" />
      <feComposite
         in="SourceGraphic"
         in2="offset"
         operator="over"
         result="composite2"
         id="feComposite47087" />
    </filter>
  </defs>
  <g
     inkscape:label="Layer 1"
     inkscape:groupmode="layer"
     id="layer1"
     transform="translate(-35.620649,-141.35925)">
    <g
       id="g46141"
       style="filter:url(#filter47089)"
       transform="translate(54.375134,601.45756)">
      <path
         style="font-variation-settings:normal;vector-effect:none;fill:#7776e4;fill-opacity:1;stroke:none;stroke-width:0.0515854px;stroke-linecap:butt;stroke-linejoin:miter;stroke-miterlimit:4;stroke-dasharray:none;stroke-dashoffset:0;stroke-opacity:1;-inkscape-stroke:none;stop-color:#000000"
         d="m 0.07919664,-444.65454 c -0.0298,0.0824 -0.0846,0.15346 -0.14473,0.18771 -0.11592,0.0662 -2.10806004,0.43539 -2.21954004,0.41139 -0.0429,-0.009 -0.54054,-0.31897 -1.10588,-0.6883 -0.56535,-0.36935 -1.03454,-0.67411 -1.04266,-0.67724 -0.008,-0.003 -0.12013,0.13056 -0.24882,0.29712 -0.12867,0.16654 -0.37476,0.44478 -0.54674,0.61826 l -0.31267,0.31547 0.13822,0.50251 c 0.30024,1.09203 0.8004,3.00326 0.81848,3.12763 0.0136,0.0899 -0.063,0.39014 -0.24063,0.94887 -0.14286,0.4495 -0.28374,0.85555 -0.31304,0.90231 -0.15616,0.24926 -0.56864,0.15149 -0.6066,-0.14389 -0.009,-0.0737 0.0786,-0.4283 0.21949,-0.88385 0.19776,-0.63939 0.22927,-0.78317 0.19746,-0.90118 -0.0209,-0.0772 -0.21182,-0.80174 -0.42445,-1.61008 -0.21264,-0.8083 -0.38818,-1.47235 -0.39008,-1.47566 -0.001,-0.003 -0.13803,0.0845 -0.30302,0.19412 -0.36846,0.24619 -0.90434,0.50184 -1.29046,0.61592 -0.1598,0.0472 -0.29184,0.0915 -0.29351,0.0986 -10e-4,0.008 -0.005,0.59719 -0.008,1.31162 -0.003,0.71443 -0.0183,1.34865 -0.0342,1.40935 -0.0206,0.0786 -0.25775,0.36405 -0.82505,0.99267 -0.43791,0.48527 -0.8372,0.90597 -0.88732,0.93491 -0.13776,0.0796 -0.3522096,0.009 -0.4401196,-0.14191 -0.12013,-0.2081 -0.0769,-0.28751 0.5029096,-0.92415 0.28502,-0.31284 0.62149,-0.68697 0.74777,-0.8313 l 0.22958,-0.26244 -0.001,-0.8901 c -7.9e-4,-0.48956 -0.003,-1.01245 -0.005,-1.162 l -0.004,-0.27189 -0.11362,0.0215 c -0.17427,0.0332 -0.73247,0.0694 -0.74464,0.0484 -0.005,-0.009 0.0109,-0.13477 0.0384,-0.27671 0.15306,-0.80367 0.0682,-1.80959 -0.21975,-2.60313 -0.14672,-0.40457 -0.5198896,-1.05231 -0.7963696,-1.38208 -0.55407,-0.66168 -1.34469,-1.21108 -2.14695,-1.49187 -0.13622,-0.0477 -0.252114,-0.0944 -0.257578,-0.10399 -0.01356,-0.0225 0.250678,-0.42016 0.395068,-0.59579 0.0622,-0.0758 0.10481,-0.15165 0.0948,-0.16896 -0.0212,-0.0366 -1.954125,-1.16421 -2.036843,-1.18814 -0.03051,-0.008 -0.49224,0.0797 -1.026009,0.19688 -0.533768,0.11714 -1.035838,0.22026 -1.115709,0.22925 -0.253861,0.0286 -0.434103,-0.1495 -0.391842,-0.38731 0.04325,-0.24371 0.07389,-0.25549 1.348162,-0.51806 0.642884,-0.13246 1.207294,-0.23877 1.254259,-0.23622 0.04705,10e-4 0.630574,0.31895 1.296872,0.70312 0.80908,0.4665 1.22192,0.68582 1.2429,0.66036 0.0172,-0.021 0.15342,-0.14817 0.30261,-0.28248 0.21643,-0.19501 0.37985,-0.30774 0.80914,-0.55842 0.3444,-0.20041 0.52788,-0.32287 0.51009,-0.33849 -0.0155,-0.0136 -0.53221,-0.52593 -1.14865,-1.13892 l -1.12081,-1.11452 -0.75799,-0.16981 c -0.416898,-0.0934 -0.80329,-0.19507 -0.858661,-0.22593 -0.274307,-0.1528 -0.162046,-0.62419 0.151308,-0.63521 0.136557,-0.005 1.740373,0.35434 1.831233,0.4101 0.0399,0.0244 0.65296,0.61953 1.36248,1.32243 0.70953,0.70288 1.2945396,1.27917 1.3000596,1.28063 0.005,0.001 0.13829,-0.0333 0.29508,-0.0774 0.33833,-0.0949 0.86914,-0.19729 1.08191,-0.20855 0.0837,-0.005 0.15613,-0.0256 0.16112,-0.047 0.005,-0.0214 -0.0198,-0.60223 -0.0553,-1.29071 -0.0363,-0.70723 -0.047,-1.2856 -0.0244,-1.32954 0.0393,-0.0766 1.2813,-1.54032 1.41551,-1.66824 0.0811,-0.0773 0.2803,-0.0967 0.37683,-0.0366 0.0949,0.059 0.18343,0.22956 0.17426,0.33529 -0.008,0.099 -0.12148,0.24482 -0.83919,1.08637 l -0.46412,0.54415 0.0594,1.0613 c 0.0327,0.58372 0.0586,1.11926 0.0573,1.19012 l -0.003,0.12894 0.22652,0.0228 c 0.62941,0.0632 1.27141,0.2605 1.76606,0.5428 0.55664,0.31768 0.9341,0.69452 1.25489,1.25282 0.37204,0.64711 0.50475,1.28825 0.43107,2.07967 -0.0327,0.35135 -0.20537,0.99822 -0.35175,1.31778 -0.0567,0.12364 -0.0967,0.23591 -0.0889,0.24931 0.022,0.0381 1.88997,1.2352 1.95111,1.25043 0.0298,0.007 0.46273,-0.0616 0.96196,-0.15329 1.01635004,-0.18683 1.09620004,-0.18511 1.21814004,0.026 0.0622,0.10779 0.0668,0.15246 0.0268,0.26239 z m -10.51898964,-0.58498 c 0.17663,0.47708 0.2777,1.05788 0.26578,1.52717 -0.008,0.30259 -0.0766,0.8605 -0.12596,1.01989 -0.0357,0.11484 -0.0393,0.11769 -0.14897,0.11158 -0.18959,-0.0122 -0.88217,-0.19348 -1.12398,-0.29663 -0.12569,-0.0538 -0.24544,-0.10372 -0.26592,-0.11131 -0.0491,-0.0182 -0.24023,0.3346 -0.42411,0.78292 -0.27913,0.68052 -0.38715,1.41627 -0.28552,1.94445 0.0846,0.43994 0.0866,0.51479 0.016,0.62481 -0.0881,0.13761 -0.22971,0.17912 -0.400044,0.11728 -0.115786,-0.0419 -0.144326,-0.0701 -0.198477,-0.1963 -0.342599,-0.79827 -0.127852,-2.20022 0.521621,-3.40719 0.0724,-0.13449 0.11823,-0.25848 0.10209,-0.27559 -0.0161,-0.0172 -0.13232,-0.12935 -0.2582,-0.2494 -0.429586,-0.41005 -0.75936,-1.00927 -0.894425,-1.62512 -0.03566,-0.16237 -0.0762,-0.27627 -0.09708,-0.27216 -0.01993,0.003 -0.267447,-0.008 -0.550472,-0.0258 -0.942871,-0.0602 -1.957599,-0.39469 -2.506471,-0.82634 -0.318222,-0.25026 -0.480119,-0.43699 -0.497379,-0.57363 -0.01844,-0.14686 0.04434,-0.28012 0.165151,-0.34983 0.155241,-0.0896 0.302021,-0.0443 0.517038,0.15924 0.37038,0.35073 0.774574,0.56325 1.387739,0.72963 0.225755,0.0611 0.556003,0.12677 0.733872,0.14537 0.340742,0.0359 0.762249,0.0527 0.764134,0.0306 0.03457,-0.40441 0.22421,-1.18406 0.347657,-1.42882 0.04949,-0.098 0.05369,-0.0998 0.171008,-0.0732 0.131649,0.0298 0.638438,0.23899 0.877818,0.36214 0.82783,0.4259 1.5821,1.2788 1.90691,2.15629 z"
         id="path24838-1-2" />
      <path
         style="font-variation-settings:normal;vector-effect:none;fill:#aa89e9;fill-opacity:1;stroke:none;stroke-width:0.100459px;stroke-linecap:butt;stroke-linejoin:miter;stroke-miterlimit:4;stroke-dasharray:none;stroke-dashoffset:0;stroke-opacity:1;-inkscape-stroke:none;stop-color:#000000"
         d="m 6.2775247,-453.14809 c -0.0146,0.0404 -0.0415,0.0753 -0.071,0.0921 -0.0568,0.0325 -1.03417,0.2136 -1.08886,0.20182 -0.0211,-0.005 -0.26518,-0.15648 -0.54252,-0.33767 -0.27735,-0.18119 -0.50753,-0.3307 -0.51151,-0.33224 -0.004,-0.002 -0.0589,0.0641 -0.12206,0.14577 -0.0632,0.0817 -0.18385,0.2182 -0.26823,0.30331 l -0.15339,0.15477 0.0678,0.24652 c 0.1473,0.53574 0.39266,1.47334 0.40154,1.53435 0.006,0.0441 -0.0309,0.1914 -0.11806,0.4655 -0.0701,0.22052 -0.1392,0.41972 -0.15357,0.44266 -0.0767,0.12227 -0.27896,0.0743 -0.29759,-0.0706 -0.005,-0.0362 0.0386,-0.21011 0.10772,-0.43359 0.097,-0.31368 0.11245,-0.38422 0.0969,-0.4421 -0.01,-0.0379 -0.10393,-0.39333 -0.20822,-0.78988 -0.10431,-0.39654 -0.19044,-0.72231 -0.19138,-0.72393 -9.7e-4,-0.002 -0.0678,0.0414 -0.14865,0.0952 -0.18075,0.12077 -0.44366,0.24618 -0.63307,0.30216 -0.0784,0.0231 -0.14318,0.0449 -0.14398,0.0483 -9.9e-4,0.004 -0.002,0.29296 -0.004,0.64345 -0.001,0.35049 -0.009,0.66162 -0.0168,0.6914 -0.01,0.0386 -0.12645,0.1786 -0.40474,0.48699 -0.21483,0.23806 -0.41072,0.44445 -0.43531,0.45864 -0.0675,0.039 -0.17279,0.005 -0.21592,-0.0696 -0.0589,-0.10208 -0.0377,-0.14105 0.24672,-0.45336 0.13983,-0.15349 0.3049,-0.33702 0.36685,-0.40782 l 0.11258,-0.12876 -7.1e-4,-0.43666 c -3.9e-4,-0.24017 -10e-4,-0.49669 -0.002,-0.57005 l -10e-4,-0.13339 -0.0557,0.0106 c -0.0854,0.0163 -0.35934,0.0341 -0.3653,0.0238 -0.002,-0.005 0.006,-0.0661 0.0189,-0.13575 0.0751,-0.39426 0.0335,-0.88774 -0.10783,-1.27703 -0.0719,-0.19849 -0.25505,-0.51625 -0.39069,-0.67803 -0.27181004,-0.32461 -0.65968004,-0.59414 -1.05325004,-0.73188 -0.0668,-0.0234 -0.12368,-0.0463 -0.12636,-0.051 -0.006,-0.0111 0.12297,-0.20612 0.19381,-0.29229 0.0305,-0.0371 0.0514,-0.0744 0.0465,-0.0829 -0.01,-0.018 -0.95865,-0.57114 -0.99924,-0.58287 -0.015,-0.004 -0.24147996,0.0391 -0.50332996,0.0966 -0.26185,0.0574 -0.50816,0.10806 -0.54735,0.11246 -0.12454,0.014 -0.21297,-0.0734 -0.19224,-0.19 0.0213,-0.11956 0.0363,-0.12534 0.66138,-0.25415 0.31539,-0.065 0.59228996,-0.11713 0.61531996,-0.11589 0.0231,10e-4 0.30935,0.15648 0.63623,0.34494 0.39691,0.22885 0.59944,0.33645 0.60973,0.32396 0.009,-0.0102 0.0752,-0.0727 0.14845,-0.13858 0.10613,-0.0957 0.18636,-0.15097 0.39695,-0.27395 0.16897004,-0.0983 0.25898004,-0.15838 0.25024004,-0.16605 -0.007,-0.007 -0.26108004,-0.25802 -0.56350004,-0.55874 l -0.54984,-0.54676 -0.37186,-0.0833 c -0.20452,-0.0458 -0.39407,-0.0957 -0.42124,-0.11084 -0.13457,-0.075 -0.0795,-0.30622 0.0742,-0.31163 0.0669,-0.002 0.85379,0.17384 0.89837,0.20119 0.0196,0.0119 0.32032,0.30394 0.6684,0.64876 0.34808004,0.34483 0.63508004,0.62754 0.63778004,0.62826 0.002,7.1e-4 0.0678,-0.0164 0.14476,-0.038 0.16598,-0.0466 0.42638,-0.0968 0.53076,-0.10232 0.041,-0.002 0.0766,-0.0125 0.0791,-0.023 0.002,-0.0106 -0.01,-0.29543 -0.0271,-0.63319 -0.0179,-0.34696 -0.023,-0.63069 -0.0122,-0.65225 0.0193,-0.0376 0.62857,-0.75565 0.69441,-0.8184 0.0398,-0.0379 0.13752,-0.0474 0.18488,-0.018 0.0465,0.0289 0.0899,0.11261 0.0856,0.16445 -0.004,0.0485 -0.0595,0.12011 -0.41169,0.53295 l -0.22769,0.26696 0.0292,0.52065 c 0.0161,0.28636 0.0287,0.5491 0.0281,0.58385 l -10e-4,0.0632 0.11111,0.0112 c 0.30877,0.031 0.62373,0.1278 0.8664,0.26629 0.27309,0.15585 0.45825,0.34071 0.61563,0.61461 0.18251,0.31746 0.24761,0.632 0.21148,1.02024 -0.0161,0.17237 -0.10078,0.48971 -0.17257,0.64648 -0.0277,0.0607 -0.0475,0.11573 -0.0436,0.12232 0.011,0.0187 0.92719,0.60595 0.95716,0.61343 0.0146,0.004 0.22702,-0.0302 0.47193,-0.0752 0.4986,-0.0917 0.53778,-0.0908 0.5976,0.0128 0.0305,0.0528 0.0327,0.0748 0.0133,0.12873 z m -5.16041,-0.28698 c 0.0867,0.23404 0.13622,0.51898 0.13038,0.7492 -0.004,0.14844 -0.0376,0.42215 -0.0617,0.50034 -0.0175,0.0563 -0.0192,0.0578 -0.073,0.0547 -0.093,-0.005 -0.43279004,-0.0949 -0.55142004,-0.14553 -0.0617,-0.0264 -0.12037,-0.0509 -0.13045,-0.0546 -0.0241,-0.009 -0.11782,0.16416 -0.20806,0.38409 -0.13694,0.33386 -0.18994,0.6948 -0.14008,0.95391 0.0415,0.21584 0.0425,0.25255 0.007,0.30652 -0.0432,0.0675 -0.1127,0.0879 -0.19626,0.0576 -0.0568,-0.0206 -0.0708,-0.0344 -0.0974,-0.0963 -0.16808,-0.39162 -0.0628,-1.07939 0.2559,-1.6715 0.0355,-0.066 0.0581,-0.1268 0.05,-0.13521 -0.009,-0.009 -0.065,-0.0635 -0.12667,-0.12235 -0.21075,-0.20116 -0.37253,-0.49513 -0.43879,-0.79725 -0.0175,-0.0797 -0.0374,-0.13553 -0.0477,-0.13352 -0.01,0.002 -0.1312,-0.004 -0.27004,-0.0126 -0.46255996,-0.0295 -0.96036996,-0.19363 -1.22962996,-0.40539 -0.15613,-0.12277 -0.23554,-0.21438 -0.244,-0.28142 -0.009,-0.072 0.0218,-0.13741 0.0811,-0.17161 0.0762,-0.044 0.14816,-0.0218 0.25365,0.0781 0.1817,0.17206 0.37999,0.27632 0.68079,0.35795 0.11075,0.0301 0.27276996,0.0622 0.36002996,0.0714 0.16715,0.0176 0.37395,0.0259 0.37487,0.015 0.0169,-0.1984 0.11002,-0.58089 0.17055,-0.70096 0.0242,-0.0481 0.0264,-0.049 0.0838,-0.0359 0.0645,0.0147 0.31322,0.11724 0.43064,0.17766 0.40612,0.20893 0.77615,0.62735 0.93550004,1.05783 z"
         id="path24832-9-0" />
      <path
         style="font-variation-settings:normal;vector-effect:none;fill:#aa89e9;fill-opacity:1;stroke:none;stroke-width:0.100459px;stroke-linecap:butt;stroke-linejoin:miter;stroke-miterlimit:4;stroke-dasharray:none;stroke-dashoffset:0;stroke-opacity:1;-inkscape-stroke:none;stop-color:#000000"
         d="m 13.287853,-443.10417 c -0.02164,0.0371 -0.0544,0.0666 -0.08644,0.0778 -0.06173,0.0217 -1.055734,0.0236 -1.107404,0.002 -0.01985,-0.009 -0.232617,-0.20173 -0.47274,-0.42996 -0.240132,-0.22823 -0.43958,-0.41679 -0.443217,-0.41902 -0.0036,-0.003 -0.06949,0.0524 -0.146344,0.12137 -0.0769,0.069 -0.220181,0.18147 -0.318525,0.24997 l -0.178783,0.12457 0.02224,0.25471 c 0.04828,0.55352 0.120555,1.51999 0.118289,1.5816 -0.0021,0.0445 -0.06491,0.18269 -0.200063,0.43658 -0.108714,0.20427 -0.212601,0.38774 -0.230872,0.40772 -0.09749,0.10643 -0.2877847,0.0228 -0.2799814,-0.12311 0.00161,-0.0365 0.075853,-0.1997 0.1841384,-0.40706 0.151971,-0.29104 0.179888,-0.35764 0.175029,-0.41738 -0.003,-0.0391 -0.0313,-0.40562 -0.06238,-0.81448 -0.0311,-0.40884 -0.05707,-0.7448 -0.05771,-0.74657 -5.94e-4,-0.002 -0.07415,0.0285 -0.16338,0.0668 -0.1995638,0.0862 -0.4807782,0.16214 -0.6771776,0.18305 -0.08128,0.009 -0.1489293,0.0183 -0.1503293,0.0215 -0.00169,0.004 -0.054793,0.2878 -0.1199594,0.63218 -0.064183,0.34456 -0.1281537,0.64915 -0.1411957,0.67704 -0.016796,0.0362 -0.1565819,0.15287 -0.4859183,0.40602 -0.2542348,0.19542 -0.4841295,0.36311 -0.5108752,0.37263 -0.073426,0.0262 -0.1708593,-0.0262 -0.1998307,-0.10739 -0.039528,-0.11103 -0.011648,-0.14554 0.3244244,-0.40144 0.1652148,-0.12576 0.3606727,-0.27652 0.4343737,-0.33499 l 0.1339522,-0.10635 0.078039,-0.42963 c 0.042923,-0.2363 0.088578,-0.48873 0.1008225,-0.56107 l 0.023069,-0.13138 -0.056698,3.8e-4 c -0.086939,6.4e-4 -0.3595987,-0.0312 -0.3636038,-0.0425 -0.00107,-0.005 0.017821,-0.0639 0.043068,-0.13011 0.1449607,-0.37426 0.1930254,-0.86715 0.1242076,-1.27554 -0.03493,-0.20821 -0.1577808,-0.55378 -0.2620258,-0.73737 -0.208822,-0.3683 -0.5417334,-0.70335 -0.9040154,-0.9098 -0.061486,-0.0351 -0.113304,-0.0678 -0.1150926,-0.0729 -0.0039,-0.012 0.1581213,-0.18057 0.243338,-0.25255 0.03669,-0.031 0.063973,-0.0639 0.060686,-0.0732 -0.00659,-0.0195 -0.8399502,-0.73464 -0.8777597,-0.75349 -0.014033,-0.007 -0.2445722,-0.005 -0.5124983,0.004 -0.2679081,0.009 -0.5193156,0.0147 -0.5586566,0.0119 -0.1250231,-0.009 -0.1962439,-0.11059 -0.1548287,-0.22155 0.042509,-0.11376 0.058306,-0.11674 0.6963666,-0.13072 0.3219409,-0.007 0.603702,-0.008 0.6261309,-0.003 0.022541,0.005 0.2760633,0.2097 0.5636028,0.45401 0.3491385,0.29667 0.5289467,0.43902 0.5413202,0.42859 0.010692,-0.008 0.087076,-0.0579 0.171005,-0.10954 0.1216467,-0.075 0.2105277,-0.11489 0.4398412,-0.19788 0.1839255,-0.0662 0.2832935,-0.10908 0.2760798,-0.1182 -0.00562,-0.008 -0.2102751,-0.30087 -0.4535131,-0.65119 l -0.4422373,-0.63695 -0.3507443,-0.14899 c -0.1929091,-0.0819 -0.3703543,-0.16518 -0.3943489,-0.18498 -0.1188404,-0.098 -0.02298,-0.31553 0.1291759,-0.29314 0.066164,0.0101 0.8084489,0.32495 0.8473665,0.35989 0.017133,0.0152 0.260264,0.35671 0.5404615,0.75865 0.2801958,0.40194 0.5115141,0.73176 0.51404,0.73296 0.00184,10e-4 0.069646,-0.004 0.1492392,-0.0113 0.1716621,-0.0159 0.4368457,-0.0183 0.5405101,-0.005 0.040689,0.005 0.077598,0.002 0.081951,-0.008 0.00388,-0.0101 0.043435,-0.29239 0.087519,-0.6277 0.04496,-0.3445 0.0911,-0.6245 0.105612,-0.64376 0.02576,-0.0335 0.754523,-0.62992 0.830599,-0.67977 0.04598,-0.0301 0.143813,-0.0218 0.185095,0.0156 0.04053,0.0368 0.06812,0.12698 0.05454,0.17719 -0.01268,0.047 -0.08018,0.10741 -0.501042,0.44998 l -0.272095,0.22153 -0.06516,0.51738 c -0.0358,0.28457 -0.07078,0.54527 -0.07764,0.57935 l -0.01238,0.062 0.107269,0.0311 c 0.298119,0.0862 0.590462,0.23818 0.804182,0.41815 0.240511,0.20254 0.389303,0.41776 0.494715,0.71555 0.122275,0.34516 0.129591,0.66629 0.02405,1.04165 -0.04692,0.16664 -0.187432,0.46351 -0.286313,0.60476 -0.03819,0.0547 -0.06759,0.10527 -0.06494,0.11246 0.0074,0.0204 0.802729,0.7632 0.830859,0.77596 0.01364,0.007 0.228745,0.0112 0.477754,0.0111 0.506963,-2.9e-4 0.545338,0.008 0.585497,0.12035 0.02048,0.0574 0.01868,0.0795 -0.01013,0.12902 z m -5.0240763,-1.21278 c 0.043078,0.24584 0.040406,0.53504 -0.00685,0.76043 -0.030701,0.14528 -0.1131045,0.40845 -0.1509085,0.48101 -0.027365,0.0522 -0.029308,0.0534 -0.081667,0.0406 -0.090574,-0.0217 -0.4085839,-0.17138 -0.5161399,-0.24257 -0.055928,-0.0371 -0.1092189,-0.0718 -0.1184665,-0.0772 -0.022082,-0.0132 -0.1454896,0.14022 -0.2739075,0.34028 -0.1948959,0.30369 -0.3121108,0.64916 -0.30979,0.91301 0.0019,0.21979 -0.00374,0.25608 -0.048386,0.30276 -0.054663,0.0586 -0.1267025,0.0661 -0.2034292,0.0213 -0.052155,-0.0305 -0.063437,-0.0466 -0.078439,-0.11229 -0.094709,-0.41551 0.1328617,-1.07302 0.5531052,-1.59796 0.046819,-0.0585 0.080012,-0.11424 0.073561,-0.12397 -0.00723,-0.0105 -0.052484,-0.0742 -0.1025319,-0.14319 -0.1710229,-0.23586 -0.2771434,-0.55419 -0.2878399,-0.8633 -0.00284,-0.0815 -0.012349,-0.14005 -0.022842,-0.13993 -0.010197,1.6e-4 -0.1283282,-0.0276 -0.2633417,-0.0611 -0.4496586,-0.11242 -0.9097134,-0.36363 -1.1363759,-0.62047 -0.1314333,-0.14891 -0.1930229,-0.25334 -0.1892557,-0.3208 0.00413,-0.0725 0.04622,-0.13123 0.1107148,-0.15418 0.082885,-0.0295 0.1496624,0.005 0.2354096,0.12256 0.1476963,0.202 0.3239362,0.34031 0.6050864,0.47484 0.1035071,0.0496 0.2570832,0.11037 0.341254,0.13515 0.1612366,0.0475 0.3631502,0.0929 0.3660206,0.0824 0.052398,-0.1921 0.2129609,-0.55153 0.2941493,-0.65872 0.032477,-0.043 0.034803,-0.0434 0.0889,-0.0202 0.060792,0.0261 0.2869455,0.1718 0.3915461,0.2524 0.3617895,0.27874 0.650306,0.75702 0.7294212,1.20918 z"
         id="path46136" />
    </g>
  </g>
</svg>
