<?xml version="1.0" encoding="UTF-8" standalone="no"?>
<!-- Created with Inkscape (http://www.inkscape.org/) -->

<svg
   xmlns:dc="http://purl.org/dc/elements/1.1/"
   xmlns:cc="http://creativecommons.org/ns#"
   xmlns:rdf="http://www.w3.org/1999/02/22-rdf-syntax-ns#"
   xmlns:svg="http://www.w3.org/2000/svg"
   xmlns="http://www.w3.org/2000/svg"
   xmlns:sodipodi="http://sodipodi.sourceforge.net/DTD/sodipodi-0.dtd"
   xmlns:inkscape="http://www.inkscape.org/namespaces/inkscape"
   width="33.153236mm"
   height="20.835938mm"
   viewBox="0 0 33.153236 20.835938"
   version="1.1"
   id="svg8"
   inkscape:version="0.92.5 (2060ec1f9f, 2020-04-08)"
   sodipodi:docname="placeholder.svg">
  <defs
     id="defs2" />
  <sodipodi:namedview
     id="base"
     pagecolor="#ffffff"
     bordercolor="#666666"
     borderopacity="1.0"
     inkscape:pageopacity="0.0"
     inkscape:pageshadow="2"
     inkscape:zoom="1.4"
     inkscape:cx="1.5238135"
     inkscape:cy="-47.576595"
     inkscape:document-units="mm"
     inkscape:current-layer="layer1"
     showgrid="false"
     inkscape:window-width="1592"
     inkscape:window-height="799"
     inkscape:window-x="1080"
     inkscape:window-y="662"
     inkscape:window-maximized="1"
     fit-margin-top="0"
     fit-margin-left="0"
     fit-margin-right="0"
     fit-margin-bottom="0" />
  <metadata
     id="metadata5">
    <rdf:RDF>
      <cc:Work
         rdf:about="">
        <dc:format>image/svg+xml</dc:format>
        <dc:type
           rdf:resource="http://purl.org/dc/dcmitype/StillImage" />
        <dc:title></dc:title>
      </cc:Work>
    </rdf:RDF>
  </metadata>
  <g
     inkscape:label="Layer 1"
     inkscape:groupmode="layer"
     id="layer1"
     transform="translate(-28.699418,-50.792607)">
    <path
       inkscape:connector-curvature="0"
       id="path14"
       style="font-style:normal;font-variant:normal;font-weight:bold;font-stretch:normal;font-size:22.57777786px;line-height:2.64583325px;font-family:'DejaVu Sans';-inkscape-font-specification:'DejaVu Sans Bold';text-align:center;letter-spacing:0.26458332px;word-spacing:0px;text-anchor:middle;fill:#000000;fill-opacity:1;stroke:none;stroke-width:0.26458332px;stroke-linecap:butt;stroke-linejoin:miter;stroke-opacity:1"
       d="m 39.128411,69.148076 v 2.480468 h -2.392275 q -2.403298,0 -3.505729,-0.970138 -1.10243,-0.970139 -1.10243,-3.09783 v -2.116667 q 0,-1.653646 -0.595313,-2.293056 -0.595312,-0.650434 -2.160764,-0.650434 h -0.672482 v -2.45842 H 29.3719 q 1.565452,0 2.160764,-0.639409 0.595313,-0.63941 0.595313,-2.293056 v -2.259983 q 0,-2.127691 1.10243,-3.086805 1.102431,-0.970139 3.505729,-0.970139 h 2.392275 v 2.480469 h -0.760677 q -1.554427,0 -2.028473,0.485069 -0.46302,0.474045 -0.46302,2.039497 v 1.830034 q 0,1.730816 -0.496094,2.513542 -0.496094,0.782726 -1.708768,1.058333 1.223698,0.297657 1.708768,1.080382 0.496094,0.782726 0.496094,2.502518 v 1.830034 q 0,1.576476 0.46302,2.050521 0.474046,0.48507 2.028473,0.48507 z" />
    <path
       inkscape:connector-curvature="0"
       id="path16"
       style="font-style:normal;font-variant:normal;font-weight:bold;font-stretch:normal;font-size:22.57777786px;line-height:2.64583325px;font-family:'DejaVu Sans';-inkscape-font-specification:'DejaVu Sans Bold';text-align:center;letter-spacing:0.26458332px;word-spacing:0px;text-anchor:middle;fill:#000000;fill-opacity:1;stroke:none;stroke-width:0.26458332px;stroke-linecap:butt;stroke-linejoin:miter;stroke-opacity:1"
       d="m 57.442932,62.667359 q -0.782726,0 -1.212674,0.683507 -0.429948,0.672483 -0.429948,1.929254 0,1.267795 0.418924,1.951302 0.429948,0.672482 1.223698,0.672482 0.79375,0 1.212673,-0.672482 0.418924,-0.683507 0.418924,-1.951302 0,-1.256771 -0.429948,-1.929254 -0.418924,-0.683507 -1.201649,-0.683507 z m 0,-1.852083 q 2.050521,0 3.230121,1.190625 1.179601,1.190625 1.179601,3.274219 0,2.083593 -1.179601,3.296267 -1.1796,1.201649 -3.230121,1.201649 -2.050521,0 -3.241146,-1.201649 -1.179601,-1.212674 -1.179601,-3.296267 0,-2.07257 1.179601,-3.263195 1.190625,-1.201649 3.241146,-1.201649 z m -10.109289,8.96276 H 44.897272 L 55.182949,52.701387 h 2.447396 z M 45.073661,52.701387 q 2.050521,0 3.219097,1.201649 1.179601,1.190625 1.179601,3.274219 0,2.083594 -1.179601,3.285243 -1.168576,1.201649 -3.219097,1.201649 -2.050521,0 -3.230122,-1.201649 -1.168576,-1.201649 -1.168576,-3.285243 0,-2.083594 1.168576,-3.274219 1.179601,-1.201649 3.230122,-1.201649 z m 0,1.852083 q -0.79375,0 -1.223698,0.683507 -0.429948,0.683507 -0.429948,1.940278 0,1.267795 0.429948,1.962326 0.429948,0.683507 1.223698,0.683507 0.79375,0 1.212673,-0.683507 0.429948,-0.694531 0.429948,-1.962326 0,-1.256771 -0.429948,-1.940278 -0.429947,-0.683507 -1.212673,-0.683507 z" />
  </g>
</svg>
